<svg width="730" height="272" viewBox="0 0 730 272" fill="none" xmlns="http://www.w3.org/2000/svg">
<path d="M552 134.499C540 134.499 528 134.399 516 134.599C511.1 134.699 508.7 132.999 508.4 127.699C507.8 117.299 508.1 106.999 508.3 96.5992C508.5 82.3992 508 68.0992 508 53.8992C508 40.3992 508.5 26.7992 508.6 13.2992C508.6 8.79922 510.7 6.79922 514.9 6.79922C539.9 6.69922 565 6.69922 590 6.69922C594.2 6.69922 596.4 8.99922 596.4 13.2992C596.4 17.1992 596.4 20.9992 596.4 24.8992C596.3 31.4992 594.1 33.7992 587.6 33.8992C572.5 33.9992 557.4 34.0992 542.2 33.7992C537.2 33.6992 535.2 35.0992 535.8 40.2992C536.2 43.9992 536.2 47.6992 535.8 51.3992C535.2 56.4992 537.5 57.4992 542.1 57.4992C554.8 57.2992 567.5 57.3992 580.2 57.4992C586.6 57.4992 587.9 58.7992 588 65.0992C588.1 68.5992 588.1 72.0992 588 75.6992C587.9 81.4992 586.6 82.8992 580.9 82.8992C568.4 82.9992 555.9 82.8992 543.4 82.9992C535.9 82.9992 535.9 82.9992 535.9 90.8992C535.9 94.8992 536.1 98.9992 535.8 102.999C535.5 106.899 537 108.199 540.9 108.199C556.7 107.999 572.5 108.099 588.3 108.099C595.4 108.099 596.3 109.099 596.4 116.399C596.4 120.099 596.5 123.799 596.4 127.499C596.3 132.999 594.6 134.699 589.1 134.699C576.7 134.599 564.3 134.499 552 134.499Z" fill="#0156A7"/>
<path d="M353.602 70.3991C353.602 51.8991 353.602 33.3991 353.602 14.8991C353.602 7.99912 355.002 6.59913 361.902 6.59913C365.702 6.59913 369.502 6.49913 373.402 6.59913C380.102 6.69913 381.702 8.29913 381.702 15.0991C381.702 43.7991 381.802 72.4991 381.502 101.199C381.402 106.699 383.202 107.999 388.302 107.899C403.202 107.599 418.202 107.799 433.102 107.799C439.202 107.799 440.002 108.699 440.102 114.899C440.102 119.099 440.102 123.399 440.102 127.599C440.202 132.099 438.102 134.499 433.602 134.499C409.302 134.499 384.902 134.599 360.602 134.499C355.202 134.499 353.602 132.699 353.602 126.999C353.602 108.099 353.602 89.1991 353.602 70.3991Z" fill="#0156A7"/>
<path d="M291.7 134.5C280.1 134.5 268.4 134.5 256.8 134.5C250.4 134.5 249.3 133.2 249.2 126.7C249 90.1001 248.7 53.4001 248.5 16.8001C248.5 8.10008 249.9 6.6001 258.4 6.6001C261.2 6.6001 264 6.6001 266.7 6.6001C276.2 6.6001 277.3 7.7001 277.3 17.1001C277.2 27.3001 277.1 37.5001 276.8 47.7001C276.3 65.8001 276.8 84.0001 276.6 102.1C276.6 106.5 278.1 107.9 282.4 107.8C297.5 107.6 312.7 107.7 327.8 107.8C333.9 107.8 334.7 108.7 334.8 114.8C334.8 118.9 334.9 122.9 334.8 127C334.7 132.8 333 134.5 327.2 134.5C315.4 134.6 303.5 134.5 291.7 134.5Z" fill="#0156A7"/>
<path d="M488 70.5991C488 89.0991 488 107.499 488 125.999C488 132.999 486.7 134.399 479.9 134.499C475.6 134.499 471.2 134.399 466.9 134.499C462.1 134.599 460 132.199 460 127.399C460.1 117.199 460 106.999 460 96.7991C460 70.0991 460 43.2991 460 16.5991C460 7.99913 461.4 6.69913 470.1 6.59913C473.6 6.59913 477 6.49913 480.5 6.59913C486.2 6.69913 488 8.39914 488 14.1991C487.9 32.9991 487.9 51.7991 488 70.5991C487.9 70.5991 487.9 70.5991 488 70.5991Z" fill="#0156A7"/>
<path d="M728.998 63.0992C726.098 31.1992 703.898 9.69922 672.398 7.29922C656.798 6.09922 641.098 6.79921 625.498 6.59921C617.998 6.49921 616.398 8.29921 616.398 15.9992C616.398 34.1992 616.398 52.2992 616.398 70.4992C616.398 88.9992 616.398 107.499 616.398 125.999C616.398 132.699 618.298 134.499 624.698 134.599C638.398 134.599 652.198 134.799 665.898 134.499C705.198 133.499 732.698 104.899 728.998 63.0992ZM676.098 105.399C666.798 107.899 657.198 107.799 647.698 107.799C644.298 107.799 644.298 105.599 644.298 103.199C644.298 92.2992 644.298 81.3992 644.298 70.4992C644.298 59.8992 644.398 49.3992 644.198 38.7992C644.098 35.1992 645.198 33.6992 648.898 33.8992C657.898 34.3992 666.898 33.1992 675.798 35.5992C689.398 39.1992 697.098 48.4992 700.098 61.7992C704.798 81.5992 694.298 100.499 676.098 105.399Z" fill="#0156A7"/>
<path d="M175.999 244.3L135.199 244C138.199 237.5 141.299 231 144.299 224.5C152.299 224.5 160.299 224.5 168.299 224.5C160.599 206 152.899 187.4 145.199 168.9C151.499 155.2 157.899 141.6 164.199 127.9C186.699 174.8 209.199 221.7 231.699 268.7C216.899 268.9 202.099 269.1 187.299 269.3C183.599 260.9 179.799 252.6 175.999 244.3Z" fill="#0156A7"/>
<path d="M135.301 9.8992C130.301 9.2992 125.301 8.79922 120.301 8.19922C105.301 40.1992 90.5008 72.1992 75.8008 104.299C62.2008 134.099 48.6008 164.099 35.3008 193.999C37.1008 195.299 38.9008 196.599 40.7008 197.899C45.6008 188.899 50.5008 179.899 55.3008 170.899C56.7008 171.899 58.7008 172.999 61.3008 173.899C67.0008 175.799 72.0008 175.099 74.7008 174.699C77.5008 174.299 79.8008 173.499 81.3008 172.899C81.5008 172.699 81.9008 172.299 82.3008 171.899C93.8008 160.199 100.101 148.499 113.301 120.899C116.701 113.799 119.701 107.399 122.301 101.899C114.001 97.8992 105.601 93.8992 97.3008 89.8992C109.901 63.1992 122.601 36.5992 135.301 9.8992Z" fill="#0156A7"/>
<path d="M0 271.1C7 256.6 14.1 242.1 21.1 227.6C28 236.5 35.3 245.5 43 254.6C47.5 260 52.1 265.2 56.6 270.2C37.7 270.5 18.9 270.8 0 271.1Z" fill="#0156A7"/>
<path d="M143.102 90.9001C143.902 89.5001 144.802 88.0001 145.602 86.6001C146.802 87.1001 148.102 87.6001 149.302 88.1001C148.402 89.7001 147.602 91.3001 146.702 92.9001C145.502 92.2001 144.302 91.5001 143.102 90.9001Z" fill="#E82523"/>
<path d="M149.5 94.5999C149.8 93.8999 150.2 93.1999 150.5 92.4999C151.1 91.3999 151.6 90.3999 152.2 89.3999C154.9 90.6999 157.7 92.0999 160.4 93.3999C159.5 95.0999 158.7 96.7999 157.8 98.3999C155.1 97.1999 152.3 95.8999 149.5 94.5999Z" fill="#E82523"/>
<path d="M160.5 100C160.8 99.2001 161.1 98.4001 161.5 97.5001C161.9 96.5001 162.4 95.5001 162.9 94.6001C164.2 95.5001 165.5 96.3001 166.8 97.2001C165.6 99.4001 164.4 101.6 163.3 103.8C162.4 102.5 161.5 101.2 160.5 100Z" fill="#E82523"/>
<path d="M168.499 58.0001C162.699 57.9001 157.699 62.6001 157.599 68.3001C157.399 73.9001 162.499 78.7001 168.899 78.8001C174.599 78.9001 179.399 74.5001 179.499 69.0001C179.599 63.3001 174.399 58.0001 168.499 58.0001ZM168.399 76.6001C163.399 76.5001 159.599 72.9001 159.699 68.3001C159.699 63.7001 163.699 59.9001 168.399 59.9001C173.199 59.9001 177.599 64.1001 177.499 68.7001C177.399 73.2001 173.399 76.8001 168.399 76.6001Z" fill="#E82523"/>
<path d="M212.699 68.4999C203.699 61.7999 192.499 54.3999 179.099 47.5999C164.699 40.2999 151.399 35.3999 140.099 31.9999C139.899 31.9999 139.299 31.8999 138.699 32.1999C138.199 32.4999 137.899 32.7999 137.799 32.9999L112.699 83.9999C115.499 85.4999 118.299 86.8999 121.099 88.3999C122.499 87.6999 140.699 78.3999 159.199 88.4999C176.399 97.8999 179.299 116 179.599 118C182.199 119.2 184.799 120.5 187.499 121.7C196.099 104.8 204.599 87.7999 213.199 70.8999C213.299 70.6999 213.499 70.3999 213.399 69.8999C213.399 69.0999 212.799 68.5999 212.699 68.4999ZM168.499 81.5999C160.799 81.5999 154.599 75.6999 154.599 68.3999C154.599 61.0999 160.799 55.1999 168.499 55.1999C176.199 55.1999 182.399 61.0999 182.399 68.3999C182.399 75.6999 176.199 81.5999 168.499 81.5999Z" fill="#E82523"/>
<path d="M140.699 28.2008C141.499 26.4008 142.399 24.6008 143.199 22.8008C154.199 25.9008 167.299 30.5008 181.299 37.5008C196.599 45.1008 209.099 53.4008 218.799 60.8008C217.799 62.7008 216.799 64.6008 215.899 66.4008C208.899 60.9008 202.199 56.4008 195.999 52.7008C188.199 48.0008 181.999 44.9008 177.899 42.9008C174.499 41.2008 166.499 37.4008 155.799 33.3008C149.899 31.2008 144.699 29.5008 140.699 28.2008Z" fill="#E82523"/>
<path d="M144.898 19.4C145.698 17.6 146.598 15.8 147.398 14C158.398 17.1 171.498 21.7 185.498 28.7C200.798 36.3 213.298 44.6 222.998 52C221.998 53.9 220.998 55.8 220.098 57.6C213.098 52.1 206.398 47.6 200.198 43.9C192.398 39.2 186.198 36.1 182.098 34.1C178.698 32.4 170.698 28.6 159.998 24.5C154.098 22.4 148.998 20.7 144.898 19.4Z" fill="#E82523"/>
<path d="M148.801 10.8C150.601 7.19999 152.301 3.6 154.101 0C164.801 2.7 177.901 6.99999 192.001 13.9C208.101 21.8 220.801 30.7 230.201 38.4C228.401 42 226.501 45.6 224.701 49.2C215.001 41.8 202.201 33.2 187.101 25.7C176.001 20.1 166.701 16.7 164.101 15.7C158.101 13.6 152.901 12 148.801 10.8Z" fill="#E82523"/>
<path d="M152.7 90.8999C152.5 90.6999 152.4 90.5999 152.2 90.3999C151.3 90.8999 150.7 92.0999 149.9 93.5999C142.5 108.4 135.2 123.4 127.3 137.9C116.9 157.1 109.4 178.7 86 189.9C99 190.8 107.4 196.8 114.5 205.1C114.1 194.4 116.3 183.4 121.7 171.5C133 146.5 145.4 121.9 158.3 97.6999C159 96.2999 159.5 95.1999 159.4 94.2999C156.9 93.8999 154.5 92.5999 152.7 90.8999Z" fill="#E82523"/>
<path d="M164.5 96.1011C161.8 95.0011 161.6 97.9011 160.8 99.4011C149.5 121.601 138 143.701 127.7 166.301C120.2 182.601 115.3 199.301 120 217.501C121 221.501 120.7 225.801 120.2 229.901C118.4 246.301 106 259.401 90.0003 261.801C88.1003 262.101 85.8003 263.001 84.5003 259.701C88.1003 258.701 91.5003 258.101 94.7003 256.901C113.3 250.301 121.8 230.001 113.6 211.901C105.8 194.801 85.0003 188.301 68.1003 197.901C51.6003 207.301 46.8003 228.401 57.0003 246.001C57.6003 247.001 60.1003 248.201 57.5003 249.601C55.4003 250.801 54.5003 249.401 53.5003 247.801C49.8003 242.001 47.7003 235.701 47.4003 228.801C46.7003 211.801 56.8003 196.601 73.7003 191.101C92.1003 185.101 105.2 173.601 113.9 156.501C124.4 135.901 135.2 115.401 145.9 94.8011C146.7 93.3011 147.4 91.7011 148.1 90.1011C148.4 89.3011 148.8 88.4011 147.7 87.9011C146.7 87.4011 145.7 87.1011 144.9 88.1011C144.2 89.1011 143.6 90.1011 143 91.2011C131.7 112.601 120.3 134.001 109.1 155.401C105.4 162.401 100.5 168.401 94.8003 173.801C85.4003 182.601 74.5003 186.401 61.8003 183.201C58.6003 182.401 57.2003 183.201 55.8003 185.901C48.5003 199.601 41.1003 213.301 33.5003 226.901C32.1003 229.401 32.6003 230.801 34.3003 232.701C39.9003 238.901 45.4003 245.101 50.6003 251.501C51.4003 252.501 52.2003 253.501 52.9003 254.401C55.2003 253.601 57.8003 253.601 60.1003 254.201C60.9003 254.401 61.7003 254.701 62.5003 255.101C63.6003 255.001 64.9003 255.301 66.0003 255.601C72.2003 257.001 77.4003 260.101 80.4003 265.801C82.0003 268.701 83.8003 269.501 87.0003 269.201C93.6003 268.601 100.3 267.501 106.7 268.801C108.9 269.201 110.4 269.001 111.6 268.301C112.3 264.101 113.9 261.001 115.8 257.101C117.6 253.401 118.1 249.201 120.1 245.401C122 241.801 124 238.501 125.7 234.801C127.3 231.301 129.1 227.801 131.2 224.401C131.9 223.301 132.6 222.401 133.4 221.701C132.9 220.901 132.2 220.101 131.2 219.301C123.7 213.101 121.8 204.801 123 195.401C123.9 188.401 126.4 182.001 129 175.601C139.2 150.001 152.8 126.101 164.5 101.201C165.2 99.7011 167.8 97.5011 164.5 96.1011ZM59.5003 227.501C59.5003 213.301 70.3003 202.101 84.0003 202.001C97.1003 201.901 108.3 212.901 108.4 225.901C108.6 239.901 96.7003 251.801 82.7003 251.601C69.6003 251.501 59.5003 241.101 59.5003 227.501Z" fill="#E82523"/>
<path d="M31.3008 229.501C39.0008 238.501 46.8008 247.601 54.5008 256.601C55.8008 256.101 63.0008 253.701 70.8008 257.501C78.8008 261.401 81.2008 268.901 81.6008 270.201C91.9008 269.801 102.201 269.501 112.401 269.101C116.701 260.901 120.901 252.601 125.201 244.101C128.701 237.101 132.101 230.101 135.401 223.201C133.701 221.601 131.901 219.701 130.101 217.401C126.801 213.201 124.701 209.201 123.301 205.901C122.801 206.801 122.401 207.701 121.901 208.601L129.501 224.601L107.401 262.701L88.4008 264.201L83.0008 266.301L80.8008 259.801L67.4008 248.501L62.7008 246.201L57.5008 250.001L54.4008 249.501L42.9008 236.901L41.7008 221.701C50.3008 209.201 58.9008 196.701 67.6008 184.301C65.5008 183.901 63.2008 183.501 60.9008 183.001C59.8008 182.701 58.7008 182.501 57.7008 182.201C48.8008 198.001 40.0008 213.701 31.3008 229.501Z" fill="#E82523"/>
<path d="M287.041 191.771V201H260.518V191.771H287.041ZM264.79 151.234V201H252.793V151.234H264.79ZM283.623 170.99V179.911H260.518V170.99H283.623ZM287.144 151.234V160.497H260.518V151.234H287.144ZM336.325 151.234V201H324.362L306.76 170.033V201H294.763V151.234H306.76L324.362 182.201V151.234H336.325ZM387.421 174.408V194.848C386.578 195.782 385.279 196.785 383.525 197.855C381.793 198.904 379.606 199.804 376.962 200.556C374.319 201.308 371.209 201.684 367.631 201.684C364.327 201.684 361.331 201.16 358.642 200.111C355.953 199.04 353.64 197.479 351.703 195.429C349.789 193.355 348.308 190.826 347.26 187.841C346.235 184.833 345.722 181.392 345.722 177.519V174.75C345.722 170.876 346.246 167.436 347.294 164.428C348.342 161.42 349.812 158.891 351.703 156.84C353.618 154.766 355.862 153.194 358.437 152.123C361.035 151.052 363.883 150.517 366.982 150.517C371.562 150.517 375.287 151.246 378.159 152.704C381.03 154.14 383.206 156.133 384.687 158.686C386.168 161.215 387.068 164.143 387.387 167.47H375.869C375.641 165.829 375.208 164.439 374.57 163.3C373.954 162.138 373.066 161.26 371.904 160.668C370.742 160.053 369.238 159.745 367.392 159.745C365.956 159.745 364.646 160.053 363.461 160.668C362.299 161.283 361.308 162.217 360.488 163.471C359.667 164.701 359.029 166.251 358.574 168.119C358.141 169.988 357.924 172.175 357.924 174.682V177.519C357.924 180.002 358.129 182.178 358.539 184.047C358.972 185.915 359.61 187.476 360.453 188.729C361.319 189.96 362.413 190.894 363.735 191.532C365.079 192.147 366.663 192.455 368.486 192.455C369.762 192.455 370.856 192.353 371.767 192.147C372.678 191.92 373.43 191.646 374.023 191.327C374.638 190.985 375.105 190.666 375.424 190.37V182.646H367.084V174.408H387.421ZM409.977 151.234V201H398.014V151.234H409.977ZM462.782 151.234V201H450.819L433.217 170.033V201H421.22V151.234H433.217L450.819 182.201V151.234H462.782ZM507.418 191.771V201H480.895V191.771H507.418ZM485.167 151.234V201H473.17V151.234H485.167ZM504 170.99V179.911H480.895V170.99H504ZM507.52 151.234V160.497H480.895V151.234H507.52ZM549.388 191.771V201H522.864V191.771H549.388ZM527.137 151.234V201H515.14V151.234H527.137ZM545.97 170.99V179.911H522.864V170.99H545.97ZM549.49 151.234V160.497H522.864V151.234H549.49ZM557.11 151.234H576.695C580.523 151.234 583.85 151.804 586.675 152.943C589.501 154.083 591.677 155.769 593.203 158.002C594.753 160.235 595.528 162.992 595.528 166.273C595.528 169.122 595.083 171.503 594.195 173.417C593.306 175.331 592.064 176.915 590.469 178.168C588.897 179.398 587.063 180.412 584.966 181.21L581.036 183.432H564.595L564.527 174.169H576.695C578.221 174.169 579.486 173.896 580.489 173.349C581.491 172.802 582.243 172.027 582.745 171.024C583.269 169.999 583.531 168.78 583.531 167.367C583.531 165.932 583.269 164.701 582.745 163.676C582.22 162.65 581.446 161.864 580.42 161.317C579.418 160.771 578.176 160.497 576.695 160.497H569.107V201H557.11V151.234ZM584.351 201L573.345 178.988L586.06 178.92L597.203 200.487V201H584.351ZM618.323 151.234V201H606.36V151.234H618.323ZM671.128 151.234V201H659.165L641.562 170.033V201H629.565V151.234H641.562L659.165 182.201V151.234H671.128ZM722.224 174.408V194.848C721.381 195.782 720.082 196.785 718.327 197.855C716.595 198.904 714.408 199.804 711.765 200.556C709.121 201.308 706.011 201.684 702.434 201.684C699.13 201.684 696.133 201.16 693.444 200.111C690.756 199.04 688.443 197.479 686.506 195.429C684.592 193.355 683.111 190.826 682.062 187.841C681.037 184.833 680.524 181.392 680.524 177.519V174.75C680.524 170.876 681.048 167.436 682.097 164.428C683.145 161.42 684.615 158.891 686.506 156.84C688.42 154.766 690.664 153.194 693.239 152.123C695.837 151.052 698.685 150.517 701.784 150.517C706.364 150.517 710.09 151.246 712.961 152.704C715.832 154.14 718.008 156.133 719.489 158.686C720.97 161.215 721.87 164.143 722.189 167.47H710.671C710.443 165.829 710.01 164.439 709.372 163.3C708.757 162.138 707.868 161.26 706.706 160.668C705.544 160.053 704.04 159.745 702.194 159.745C700.759 159.745 699.449 160.053 698.264 160.668C697.102 161.283 696.11 162.217 695.29 163.471C694.47 164.701 693.832 166.251 693.376 168.119C692.943 169.988 692.727 172.175 692.727 174.682V177.519C692.727 180.002 692.932 182.178 693.342 184.047C693.775 185.915 694.413 187.476 695.256 188.729C696.122 189.96 697.215 190.894 698.537 191.532C699.881 192.147 701.465 192.455 703.288 192.455C704.564 192.455 705.658 192.353 706.569 192.147C707.481 191.92 708.233 191.646 708.825 191.327C709.44 190.985 709.908 190.666 710.227 190.37V182.646H701.887V174.408H722.224Z" fill="#E82523"/>
<path d="M273.883 229.693L261.749 269H248.863L267.149 219.234H275.318L273.883 229.693ZM283.932 269L271.764 229.693L270.191 219.234H278.463L296.852 269H283.932ZM283.453 250.44V259.703H257.921V250.44H283.453ZM332.444 255.772C332.444 254.998 332.33 254.303 332.102 253.688C331.874 253.049 331.452 252.457 330.837 251.91C330.222 251.363 329.333 250.816 328.171 250.27C327.032 249.7 325.528 249.107 323.659 248.492C321.472 247.763 319.364 246.943 317.336 246.031C315.308 245.097 313.497 244.015 311.902 242.784C310.307 241.531 309.042 240.073 308.108 238.409C307.173 236.723 306.706 234.763 306.706 232.53C306.706 230.388 307.185 228.463 308.142 226.754C309.099 225.022 310.432 223.552 312.141 222.345C313.873 221.114 315.901 220.18 318.225 219.542C320.549 218.881 323.09 218.551 325.847 218.551C329.493 218.551 332.706 219.189 335.486 220.465C338.288 221.718 340.476 223.507 342.048 225.831C343.643 228.132 344.441 230.855 344.441 234H332.512C332.512 232.747 332.25 231.642 331.726 230.685C331.224 229.728 330.461 228.976 329.436 228.429C328.41 227.882 327.123 227.608 325.573 227.608C324.07 227.608 322.805 227.836 321.779 228.292C320.754 228.748 319.979 229.363 319.455 230.138C318.931 230.89 318.669 231.721 318.669 232.633C318.669 233.385 318.874 234.068 319.284 234.684C319.717 235.276 320.321 235.834 321.096 236.358C321.893 236.882 322.85 237.384 323.967 237.862C325.106 238.341 326.382 238.808 327.795 239.264C330.438 240.107 332.785 241.052 334.836 242.101C336.91 243.126 338.653 244.299 340.066 245.621C341.501 246.92 342.584 248.401 343.313 250.064C344.065 251.728 344.441 253.608 344.441 255.704C344.441 257.937 344.008 259.92 343.142 261.651C342.276 263.383 341.034 264.853 339.416 266.061C337.798 267.245 335.862 268.146 333.606 268.761C331.35 269.376 328.832 269.684 326.052 269.684C323.5 269.684 320.982 269.365 318.498 268.727C316.037 268.066 313.804 267.063 311.799 265.719C309.794 264.352 308.187 262.608 306.98 260.489C305.795 258.347 305.202 255.807 305.202 252.867H317.234C317.234 254.326 317.427 255.556 317.815 256.559C318.202 257.561 318.772 258.37 319.524 258.985C320.276 259.578 321.198 260.011 322.292 260.284C323.386 260.535 324.639 260.66 326.052 260.66C327.579 260.66 328.809 260.444 329.743 260.011C330.678 259.555 331.361 258.963 331.794 258.233C332.227 257.481 332.444 256.661 332.444 255.772ZM382.562 255.772C382.562 254.998 382.448 254.303 382.22 253.688C381.992 253.049 381.571 252.457 380.955 251.91C380.34 251.363 379.452 250.816 378.289 250.27C377.15 249.7 375.646 249.107 373.778 248.492C371.59 247.763 369.482 246.943 367.454 246.031C365.426 245.097 363.615 244.015 362.02 242.784C360.425 241.531 359.16 240.073 358.226 238.409C357.292 236.723 356.825 234.763 356.825 232.53C356.825 230.388 357.303 228.463 358.26 226.754C359.217 225.022 360.55 223.552 362.259 222.345C363.991 221.114 366.019 220.18 368.343 219.542C370.667 218.881 373.208 218.551 375.965 218.551C379.611 218.551 382.824 219.189 385.604 220.465C388.407 221.718 390.594 223.507 392.166 225.831C393.761 228.132 394.559 230.855 394.559 234H382.63C382.63 232.747 382.368 231.642 381.844 230.685C381.343 229.728 380.579 228.976 379.554 228.429C378.529 227.882 377.241 227.608 375.692 227.608C374.188 227.608 372.923 227.836 371.898 228.292C370.872 228.748 370.098 229.363 369.574 230.138C369.05 230.89 368.787 231.721 368.787 232.633C368.787 233.385 368.993 234.068 369.403 234.684C369.836 235.276 370.44 235.834 371.214 236.358C372.012 236.882 372.969 237.384 374.085 237.862C375.225 238.341 376.501 238.808 377.913 239.264C380.557 240.107 382.904 241.052 384.954 242.101C387.028 243.126 388.771 244.299 390.184 245.621C391.62 246.92 392.702 248.401 393.431 250.064C394.183 251.728 394.559 253.608 394.559 255.704C394.559 257.937 394.126 259.92 393.26 261.651C392.394 263.383 391.152 264.853 389.535 266.061C387.917 267.245 385.98 268.146 383.724 268.761C381.468 269.376 378.95 269.684 376.17 269.684C373.618 269.684 371.1 269.365 368.617 268.727C366.156 268.066 363.923 267.063 361.917 265.719C359.912 264.352 358.306 262.608 357.098 260.489C355.913 258.347 355.321 255.807 355.321 252.867H367.352C367.352 254.326 367.546 255.556 367.933 256.559C368.32 257.561 368.89 258.37 369.642 258.985C370.394 259.578 371.317 260.011 372.411 260.284C373.504 260.535 374.758 260.66 376.17 260.66C377.697 260.66 378.927 260.444 379.862 260.011C380.796 259.555 381.48 258.963 381.912 258.233C382.345 257.481 382.562 256.661 382.562 255.772ZM449.155 243.126V245.143C449.155 248.948 448.619 252.366 447.548 255.396C446.5 258.404 445.008 260.979 443.071 263.121C441.134 265.24 438.844 266.869 436.201 268.009C433.558 269.125 430.641 269.684 427.451 269.684C424.238 269.684 421.298 269.125 418.632 268.009C415.989 266.869 413.688 265.24 411.728 263.121C409.791 260.979 408.287 258.404 407.216 255.396C406.168 252.366 405.644 248.948 405.644 245.143V243.126C405.644 239.321 406.168 235.903 407.216 232.872C408.287 229.841 409.78 227.267 411.694 225.147C413.631 223.006 415.921 221.376 418.564 220.26C421.23 219.12 424.17 218.551 427.382 218.551C430.573 218.551 433.489 219.12 436.132 220.26C438.798 221.376 441.1 223.006 443.037 225.147C444.974 227.267 446.477 229.841 447.548 232.872C448.619 235.903 449.155 239.321 449.155 243.126ZM436.987 245.143V243.058C436.987 240.597 436.77 238.432 436.337 236.563C435.927 234.672 435.312 233.089 434.492 231.812C433.671 230.536 432.657 229.579 431.45 228.941C430.265 228.281 428.909 227.95 427.382 227.95C425.787 227.95 424.397 228.281 423.212 228.941C422.028 229.579 421.036 230.536 420.239 231.812C419.441 233.089 418.837 234.672 418.427 236.563C418.04 238.432 417.846 240.597 417.846 243.058V245.143C417.846 247.581 418.04 249.745 418.427 251.637C418.837 253.505 419.441 255.089 420.239 256.388C421.059 257.687 422.062 258.666 423.247 259.327C424.454 259.988 425.856 260.318 427.451 260.318C428.977 260.318 430.333 259.988 431.518 259.327C432.703 258.666 433.694 257.687 434.492 256.388C435.312 255.089 435.927 253.505 436.337 251.637C436.77 249.745 436.987 247.581 436.987 245.143ZM489.976 252.149H501.939C501.78 255.613 500.846 258.666 499.137 261.31C497.428 263.953 495.058 266.015 492.027 267.496C489.019 268.954 485.465 269.684 481.363 269.684C478.036 269.684 475.063 269.125 472.442 268.009C469.845 266.892 467.634 265.286 465.811 263.189C464.011 261.093 462.633 258.552 461.676 255.567C460.741 252.582 460.274 249.221 460.274 245.484V242.784C460.274 239.047 460.764 235.686 461.744 232.701C462.747 229.693 464.159 227.141 465.982 225.045C467.828 222.926 470.038 221.308 472.613 220.191C475.188 219.075 478.048 218.517 481.192 218.517C485.522 218.517 489.179 219.291 492.164 220.841C495.149 222.39 497.462 224.521 499.102 227.232C500.743 229.921 501.711 232.986 502.008 236.427H490.045C489.999 234.558 489.68 232.997 489.088 231.744C488.495 230.468 487.561 229.511 486.285 228.873C485.009 228.235 483.311 227.916 481.192 227.916C479.711 227.916 478.424 228.189 477.33 228.736C476.236 229.283 475.325 230.149 474.596 231.334C473.866 232.519 473.319 234.057 472.955 235.948C472.613 237.817 472.442 240.073 472.442 242.716V245.484C472.442 248.128 472.602 250.383 472.921 252.252C473.24 254.12 473.752 255.647 474.459 256.832C475.165 258.017 476.077 258.894 477.193 259.464C478.332 260.011 479.722 260.284 481.363 260.284C483.186 260.284 484.724 259.999 485.977 259.43C487.231 258.837 488.199 257.949 488.883 256.764C489.566 255.556 489.931 254.018 489.976 252.149ZM526.662 219.234V269H514.699V219.234H526.662ZM563.109 229.693L550.975 269H538.089L556.375 219.234H564.544L563.109 229.693ZM573.157 269L560.989 229.693L559.417 219.234H567.689L586.077 269H573.157ZM572.679 250.44V259.703H547.147V250.44H572.679ZM616.03 219.234V269H604.033V219.234H616.03ZM631 219.234V228.497H589.404V219.234H631ZM676.641 259.771V269H650.118V259.771H676.641ZM654.39 219.234V269H642.393V219.234H654.39ZM673.223 238.99V247.911H650.118V238.99H673.223ZM676.744 219.234V228.497H650.118V219.234H676.744ZM713.498 255.772C713.498 254.998 713.384 254.303 713.156 253.688C712.928 253.049 712.507 252.457 711.891 251.91C711.276 251.363 710.388 250.816 709.225 250.27C708.086 249.7 706.582 249.107 704.714 248.492C702.526 247.763 700.418 246.943 698.39 246.031C696.362 245.097 694.551 244.015 692.956 242.784C691.361 241.531 690.096 240.073 689.162 238.409C688.228 236.723 687.761 234.763 687.761 232.53C687.761 230.388 688.239 228.463 689.196 226.754C690.153 225.022 691.486 223.552 693.195 222.345C694.927 221.114 696.955 220.18 699.279 219.542C701.603 218.881 704.144 218.551 706.901 218.551C710.547 218.551 713.76 219.189 716.54 220.465C719.343 221.718 721.53 223.507 723.102 225.831C724.697 228.132 725.495 230.855 725.495 234H713.566C713.566 232.747 713.304 231.642 712.78 230.685C712.279 229.728 711.515 228.976 710.49 228.429C709.465 227.882 708.177 227.608 706.628 227.608C705.124 227.608 703.859 227.836 702.834 228.292C701.808 228.748 701.034 229.363 700.51 230.138C699.985 230.89 699.723 231.721 699.723 232.633C699.723 233.385 699.929 234.068 700.339 234.684C700.772 235.276 701.375 235.834 702.15 236.358C702.948 236.882 703.905 237.384 705.021 237.862C706.161 238.341 707.437 238.808 708.849 239.264C711.493 240.107 713.84 241.052 715.89 242.101C717.964 243.126 719.707 244.299 721.12 245.621C722.555 246.92 723.638 248.401 724.367 250.064C725.119 251.728 725.495 253.608 725.495 255.704C725.495 257.937 725.062 259.92 724.196 261.651C723.33 263.383 722.088 264.853 720.471 266.061C718.853 267.245 716.916 268.146 714.66 268.761C712.404 269.376 709.886 269.684 707.106 269.684C704.554 269.684 702.036 269.365 699.553 268.727C697.092 268.066 694.859 267.063 692.853 265.719C690.848 264.352 689.242 262.608 688.034 260.489C686.849 258.347 686.257 255.807 686.257 252.867H698.288C698.288 254.326 698.482 255.556 698.869 256.559C699.256 257.561 699.826 258.37 700.578 258.985C701.33 259.578 702.253 260.011 703.346 260.284C704.44 260.535 705.694 260.66 707.106 260.66C708.633 260.66 709.863 260.444 710.798 260.011C711.732 259.555 712.416 258.963 712.848 258.233C713.281 257.481 713.498 256.661 713.498 255.772Z" fill="#E82523"/>
</svg>
